<svg xmlns="http://www.w3.org/2000/svg" xmlns:xlink="http://www.w3.org/1999/xlink" xmlns:lucid="lucid" width="110.53" height="110.53"><g transform="translate(-2200 -1580)" lucid:page-tab-id="0_0"><path d="M2227.05 1635.26v35.27l27.2-17.63zm27.2 17.64h2zm2 0l27.22-17.64v35.27z" stroke="#000" fill="#7ab648"/><use xlink:href="#a" transform="matrix(1,0,0,1,2239.042209469048,1603.5263350868609) translate(-10.475000000000001 19.6)"/><defs><path d="M143 4C61 4 22-44 18-125c-5-107 100-154 193-111 17 8 29 25 37 43l-32 9c-13-25-37-40-76-40-61 0-88 39-88 99 0 61 29 100 91 101 35 0 62-11 79-27v-45h-74v-28h105v86C228-13 192 4 143 4" id="b"/><path d="M30 0v-248h187v28H63v79h144v27H63v87h162V0H30" id="c"/><path d="M240 0l2-218c-23 76-54 145-80 218h-23L58-218 59 0H30v-248h44l77 211c21-75 51-140 76-211h43V0h-30" id="d"/><path d="M185-189c-5-48-123-54-124 2 14 75 158 14 163 119 3 78-121 87-175 55-17-10-28-26-33-46l33-7c5 56 141 63 141-1 0-78-155-14-162-118-5-82 145-84 179-34 5 7 8 16 11 25" id="e"/><g id="a"><use transform="matrix(0.05,0,0,0.05,0,0)" xlink:href="#b"/><use transform="matrix(0.05,0,0,0.05,14,0)" xlink:href="#c"/><use transform="matrix(0.05,0,0,0.05,26,0)" xlink:href="#d"/><use transform="matrix(0.05,0,0,0.05,40.95,0)" xlink:href="#e"/></g></defs></g></svg>