<svg xmlns="http://www.w3.org/2000/svg" xmlns:xlink="http://www.w3.org/1999/xlink" xmlns:lucid="lucid" width="202.1" height="135.64"><g transform="translate(-2040 -1727.964627742554)" lucid:page-tab-id="0_0"><path d="M2060 1748.96h162.1v30.68H2060z" fill="none"/><use xlink:href="#a" transform="matrix(1,0,0,1,2060,1748.964627742554) translate(59.05 14.4)"/><use xlink:href="#b" transform="matrix(1,0,0,1,2060,1748.964627742554) translate(32.074999999999996 36)"/><path d="M2107.6 1801.8v41.8l32.45-20.9zm32.45 20.9h2zm2 0l32.44-20.9v41.8z" stroke="#000" fill="#c92d39"/><defs><path d="M197 0v-115H63V0H30v-248h33v105h134v-105h34V0h-34" id="c"/><path d="M33 0v-248h34V0H33" id="d"/><path d="M143 4C61 4 22-44 18-125c-5-107 100-154 193-111 17 8 29 25 37 43l-32 9c-13-25-37-40-76-40-61 0-88 39-88 99 0 61 29 100 91 101 35 0 62-11 79-27v-45h-74v-28h105v86C228-13 192 4 143 4" id="e"/><g id="a"><use transform="matrix(0.05,0,0,0.05,0,0)" xlink:href="#c"/><use transform="matrix(0.05,0,0,0.05,12.950000000000001,0)" xlink:href="#d"/><use transform="matrix(0.05,0,0,0.05,17.950000000000003,0)" xlink:href="#e"/><use transform="matrix(0.05,0,0,0.05,31.950000000000003,0)" xlink:href="#c"/></g><path d="M30-248c87 1 191-15 191 75 0 78-77 80-158 76V0H30v-248zm33 125c57 0 124 11 124-50 0-59-68-47-124-48v98" id="f"/><path d="M233-177c-1 41-23 64-60 70L243 0h-38l-65-103H63V0H30v-248c88 3 205-21 203 71zM63-129c60-2 137 13 137-47 0-61-80-42-137-45v92" id="g"/><path d="M30 0v-248h187v28H63v79h144v27H63v87h162V0H30" id="h"/><path d="M185-189c-5-48-123-54-124 2 14 75 158 14 163 119 3 78-121 87-175 55-17-10-28-26-33-46l33-7c5 56 141 63 141-1 0-78-155-14-162-118-5-82 145-84 179-34 5 7 8 16 11 25" id="i"/><path d="M232-93c-1 65-40 97-104 97C67 4 28-28 28-90v-158h33c8 89-33 224 67 224 102 0 64-133 71-224h33v155" id="j"/><g id="b"><use transform="matrix(0.05,0,0,0.05,0,0)" xlink:href="#f"/><use transform="matrix(0.05,0,0,0.05,12,0)" xlink:href="#g"/><use transform="matrix(0.05,0,0,0.05,24.950000000000003,0)" xlink:href="#h"/><use transform="matrix(0.05,0,0,0.05,36.95,0)" xlink:href="#i"/><use transform="matrix(0.05,0,0,0.05,48.95,0)" xlink:href="#i"/><use transform="matrix(0.05,0,0,0.05,60.95,0)" xlink:href="#j"/><use transform="matrix(0.05,0,0,0.05,73.9,0)" xlink:href="#g"/><use transform="matrix(0.05,0,0,0.05,86.85000000000001,0)" xlink:href="#h"/></g></defs></g></svg>