<svg xmlns="http://www.w3.org/2000/svg" xmlns:xlink="http://www.w3.org/1999/xlink" xmlns:lucid="lucid" width="146.61" height="139.04"><g transform="translate(-2251.5775975034203 -1654.6660648542445)" lucid:page-tab-id="0_0"><path d="M2271.58 1674.67h106.6v43.05h-106.6z" fill="none"/><use xlink:href="#a" transform="matrix(1,0,0,1,2271.5775975034203,1674.6660648542445) translate(7.375 25.6)"/><use xlink:href="#b" transform="matrix(1,0,0,1,2271.5775975034203,1674.6660648542445) translate(48.375 25.6)"/><g stroke="#000" fill="#7ab648"><path d="M2336.68 1715.3h-32.45l16.22 24.95zm-16.23 24.95v2zm0 2l16.23 24.97h-32.45zM2320.45 1741.25h19.48m0-12.98c3.58 0 6.5 5.8 6.5 12.98 0 7.17-2.92 13-6.5 13z"/></g><defs><path d="M30 0v-248h33v221h125V0H30" id="c"/><path d="M140-251c81 0 123 46 123 126C263-46 219 4 140 4 59 4 17-45 17-125s42-126 123-126zm0 227c63 0 89-41 89-101s-29-99-89-99c-61 0-89 39-89 99S79-25 140-24" id="d"/><path d="M195 0l-74-108L45 0H8l94-129-87-119h37l69 98 67-98h37l-84 118L233 0h-38" id="e"/><g id="a"><use transform="matrix(0.05,0,0,0.05,0,0)" xlink:href="#c"/><use transform="matrix(0.05,0,0,0.05,10,0)" xlink:href="#d"/><use transform="matrix(0.05,0,0,0.05,24,0)" xlink:href="#e"/></g><path d="M54-142c48-35 137-8 131 61C196 18 31 33 14-55l32-4c7 23 22 37 52 37 35-1 51-22 54-58 4-55-73-65-99-34H22l8-134h141v27H59" id="f"/><path d="M16-82v-28h88v28H16" id="g"/><path d="M266 0h-40l-56-210L115 0H75L2-248h35L96-30l15-64 43-154h32l59 218 59-218h35" id="h"/><path d="M141-36C126-15 110 5 73 4 37 3 15-17 15-53c-1-64 63-63 125-63 3-35-9-54-41-54-24 1-41 7-42 31l-33-3c5-37 33-52 76-52 45 0 72 20 72 64v82c-1 20 7 32 28 27v20c-31 9-61-2-59-35zM48-53c0 20 12 33 32 33 41-3 63-29 60-74-43 2-92-5-92 41" id="i"/><path d="M179-190L93 31C79 59 56 82 12 73V49c39 6 53-20 64-50L1-190h34L92-34l54-156h33" id="j"/><g id="b"><use transform="matrix(0.05,0,0,0.05,0,0)" xlink:href="#f"/><use transform="matrix(0.05,0,0,0.05,10,0)" xlink:href="#g"/><use transform="matrix(0.05,0,0,0.05,15.949999999999998,0)" xlink:href="#h"/><use transform="matrix(0.05,0,0,0.05,32.25,0)" xlink:href="#i"/><use transform="matrix(0.05,0,0,0.05,42.25,0)" xlink:href="#j"/></g></defs></g></svg>