<svg xmlns="http://www.w3.org/2000/svg" xmlns:xlink="http://www.w3.org/1999/xlink" xmlns:lucid="lucid" width="80" height="80"><g transform="translate(-2140 -1520)" lucid:page-tab-id="0_0"><path d="M2200 1560c0-11.05-8.95-20-20-20s-20 8.95-20 20 8.95 20 20 20 20-8.95 20-20zM2160 1560h40" stroke="#000" stroke-width="2" fill="#fff"/><use xlink:href="#a" transform="matrix(1,0,0,1,2165,1545) translate(3.5249999999999986 14.4)"/><defs><path d="M30-248c87 1 191-15 191 75 0 78-77 80-158 76V0H30v-248zm33 125c57 0 124 11 124-50 0-59-68-47-124-48v98" id="b"/><path d="M127-220V0H93v-220H8v-28h204v28h-85" id="c"/><g id="a"><use transform="matrix(0.05,0,0,0.05,0,0)" xlink:href="#b"/><use transform="matrix(0.05,0,0,0.05,12,0)" xlink:href="#c"/></g></defs></g></svg>